<?xml version="1.0" standalone="no"?>
<!DOCTYPE svg PUBLIC "-//W3C//DTD SVG 20010904//EN"
 "http://www.w3.org/TR/2001/REC-SVG-20010904/DTD/svg10.dtd">
<svg version="1.0" xmlns="http://www.w3.org/2000/svg"
 width="50.000000pt" height="50.000000pt" viewBox="0 0 50.000000 50.000000"
 preserveAspectRatio="xMidYMid meet">

<g transform="translate(0.000000,50.000000) scale(0.100000,-0.100000)"
fill="#000000" stroke="none">
<path d="M280 431 c-11 -42 -77 -131 -97 -131 -10 0 -13 -28 -13 -104 l0 -105
58 -17 c31 -9 85 -19 118 -22 83 -6 96 8 118 124 26 143 22 154 -56 154 -45 0
-48 1 -38 19 15 29 12 87 -6 105 -8 9 -28 16 -44 16 -25 0 -31 -5 -40 -39z"/>
<path d="M47 293 c-4 -3 -7 -51 -7 -105 l0 -98 60 0 60 0 0 105 0 105 -53 0
c-30 0 -57 -3 -60 -7z m63 -153 c0 -5 -4 -10 -10 -10 -5 0 -10 5 -10 10 0 6 5
10 10 10 6 0 10 -4 10 -10z"/>
</g>
</svg>
